<svg width="18" height="15" viewBox="0 0 18 15" fill="none" xmlns="http://www.w3.org/2000/svg">
<path d="M17.1002 8.10006H3.07273L7.83646 12.8638C8.18792 13.2153 8.18792 13.785 7.83646 14.1364C7.48501 14.4879 6.91508 14.4879 6.56363 14.1364L0.26358 7.83636C-0.0878723 7.48491 -0.0878723 6.91498 0.26358 6.56375L6.56363 0.263702C6.73936 0.0879759 6.96976 0 7.20016 0C7.43034 0 7.66074 0.0879759 7.83646 0.263702C8.18792 0.615155 8.18792 1.18508 7.83646 1.53631L3.07273 6.30005H17.1002C17.5973 6.30005 18.0002 6.70303 18.0002 7.20006C18.0002 7.69708 17.5973 8.10006 17.1002 8.10006Z" fill="#7E9BBD"/>
</svg>
